<svg xmlns="http://www.w3.org/2000/svg" viewBox="0 0 200 200">
  <defs>
    <linearGradient id="a" x1="0%" y1="0%" x2="100%" y2="100%">
      <stop offset="0%" style="stop-color:#667eea"/>
      <stop offset="100%" style="stop-color:#764ba2"/>
    </linearGradient>
  </defs>
  <rect width="200" height="200" fill="none"/>
  <path fill="url(#a)" d="M100 180C55.8 180 20 144.2 20 100S55.8 20 100 20s80 35.8 80 80-35.8 80-80 80zm0-140c-33.1 0-60 26.9-60 60s26.9 60 60 60 60-26.9 60-60-26.9-60-60-60z"/>
  <path fill="#FFF" d="M100 115c-8.3 0-15-6.7-15-15V70c0-8.3 6.7-15 15-15s15 6.7 15 15v30c0 8.3-6.7 15-15 15zm0-60c-5.5 0-10 4.5-10 10v30c0 5.5 4.5 10 10 10s10-4.5 10-10V65c0-5.5-4.5-10-10-10z"/>
  <path fill="#FFF" d="M125 100c0 13.8-11.2 25-25 25s-25-11.2-25-25h-10c0 19.3 15.7 35 35 35s35-15.7 35-35h-10z"/>
</svg>
