<svg xmlns="http://www.w3.org/2000/svg" viewBox="0 0 200 200">
  <defs>
    <linearGradient id="b" x1="0%" y1="0%" x2="100%" y2="100%">
      <stop offset="0%" style="stop-color:#667eea"/>
      <stop offset="100%" style="stop-color:#764ba2"/>
    </linearGradient>
  </defs>
  <rect width="200" height="200" fill="none"/>
  <path fill="url(#b)" d="M100 180C55.8 180 20 144.2 20 100S55.8 20 100 20s80 35.8 80 80-35.8 80-80 80z"/>
  <path fill="#FFF" d="M100 50c-27.6 0-50 22.4-50 50s22.4 50 50 50 50-22.4 50-50-22.4-50-50-50zm0 90c-22.1 0-40-17.9-40-40s17.9-40 40-40 40 17.9 40 40-17.9 40-40 40z"/>
  <path fill="#FFF" d="M100 70c-16.5 0-30 13.5-30 30s13.5 30 30 30 30-13.5 30-30-13.5-30-30-30zm0 50c-11 0-20-9-20-20s9-20 20-20 20 9 20 20-9 20-20 20z"/>
  <path fill="#FFF" d="M140 100c0 22.1-17.9 40-40 40V90c16.5 0 30-13.5 30-30h10c0 22.1-17.9 40-40 40v10c27.6 0 50-22.4 50-50h-10z"/>
</svg>
